<?xml version="1.0" encoding="UTF-8"?>
<svg id="Layer_1" xmlns="http://www.w3.org/2000/svg" version="1.1" viewBox="0 0 250 250">
  <!-- Generator: Adobe Illustrator 29.0.1, SVG Export Plug-In . SVG Version: 2.1.0 Build 192)  -->
  <defs>
    <style>
      .st0 {
        fill: #fff;
      }
    </style>
  </defs>
  <path class="st0" d="M56.79,117.63c40.77-5.16,86.51,13.91,78.97,61.87-5.38,34.24-45.17,25.88-65.06,40.91-9.74,7.36-25.04,27.51-36.57,29.34-8,1.27-17.76-2.69-22.12-9.58-3.61-5.7-11.28-42.08-11.84-50.08-2.4-33.77,21.85-68.07,56.62-72.48ZM63.57,125.03c-23.56,1.58-45.12,17.23-51.77,39.95l15.39-.14c2.32-15.11,21.26-15.96,24.68-.45l11.71.6.55-14.27,10.34-2.34.76-6.59c-3.8.13-8.12.42-11.02-2.56l-.64-14.19ZM127.01,164.99c-2.89-27.22-29.59-43.08-55.67-39.96-1.99,10.57,3.1,6.58,8.5,11.53,8.57,7.86,2.85,20.09-8.35,20.84l-.15,7.59h22.65c4.14,0,1.82,11.78,6.66,12.64,7.41,1.31,2.32-12.64,7.58-12.64h18.77ZM30.57,174.02c-5.81,1.21-15.08-.88-21.36,0-.21,4.26-1.45,7.75-1.32,12.19.24,8.07,6.56,38.44,9.42,46.12,3.51,9.44,13.32,12.06,21.61,6.72,2.24-1.45,23.31-21.03,23.99-22.52,1.5-3.3.47-7.94.61-11.52-16.38.02-15.53-22.52.14-23.99l-.08-7.01c-4.43-.56-16.12,1.43-19.12-1.59-2.36-2.37-.53-10.5-3.58-11.29-7.81-2.02-3.23,11.41-10.32,12.88ZM89.47,174.02h-18.12l-.56,14.26c-1.84,2.61-17.38-1.15-8.92,8.71l9.3,1.7.84,11.43c20.56-10.72,53.31-5.68,56.3-36.1l-13.42.16c-4.25,8.51-12.39,16.17-21.61,8.29-3.59-3.07-3.45-8.14-3.81-8.46Z"/>
  <path class="st0" d="M174.6,19.67c43.43-5.84,73,44.7,47.47,79.49-3.67,5-11.25,9.26-12.89,15.52-3.13,11.95,4.01,23.27-7.74,33.54-9.14,7.99-34.18,7.68-42.08-1.91-8.5-10.32-2.99-21.03-5.77-31.64-1.53-5.83-10.85-12.51-14.67-18.91-18.17-30.49-.02-71.3,35.68-76.1ZM210.7,39.13c-34.59-34.44-91.51,10.81-64.04,54.1,4.6,7.25,11.95,11.19,15.29,19.58l38,.42c4.35-8.5,12.7-13.65,17.22-21.52,9.62-16.72,7.26-38.91-6.47-52.58ZM200.8,121.17h-38.84v7.73h38.84v-7.73ZM199.51,136.64h-36.25c3.81,12.84,32.44,13.05,36.25,0Z"/>
  <path class="st0" d="M185.27,161.13v35.45c0,9.96-19.1,29-29.13,29h-30.42v-7.73h27.83c8.75,0,23.95-15.12,23.95-23.85v-32.87h7.77Z"/>
  <polygon class="st0" points="227.34 18.08 233.14 23.85 223.45 33.5 217.65 27.72 227.34 18.08"/>
  <rect class="st0" x="177.49" y="0" width="7.78" height="14.19"/>
  <polygon class="st0" points="135.42 18.09 145.11 27.72 139.31 33.49 131.07 23.61 135.42 18.09"/>
  <rect class="st0" x="114.06" y="61.87" width="12.96" height="7.75"/>
  <rect class="st0" x="237.04" y="64.45" width="12.96" height="7.75"/>
  <path class="st0" d="M185.25,65.74l1.22-16.21c4.63-3.45,26.56,16.2,27.13,18.4s-.51,2.93-1.72,4.34c-1.1,1.29-19.02,15.52-20.2,16.04-8.55,3.74-6.29-12.53-6.43-17.42l-23.93,18.09c-1.29.02-2.59-.88-3.35-1.88-2.17-2.84-1.73-36.71.27-37.95,5.82-3.62,20.75,14.74,27.01,16.59ZM174.91,69.59l-9.05-7.71v12.88s9.05-5.17,9.05-5.17ZM203.39,69.59c.57-.82-9.39-8.8-10.35-7.7v14.17s10.35-6.47,10.35-6.47Z"/>
</svg>