<?xml version="1.0" encoding="UTF-8"?>
<svg id="Layer_1" xmlns="http://www.w3.org/2000/svg" version="1.1" viewBox="0 0 250 250">
  <!-- Generator: Adobe Illustrator 29.0.1, SVG Export Plug-In . SVG Version: 2.1.0 Build 192)  -->
  <defs>
    <style>
      .st0 {
        fill: #fff;
      }
    </style>
  </defs>
  <path class="st0" d="M143.33,38.96l96.68.41c2.08,1.16,2.28,2.82,2.55,4.95.6,4.68.38,44.78-.68,46.94-.9,1.84-3,2.55-4.95,2.55l-94.45-.67c-1.86-1.68-2.24-3.9-2.51-6.24-.65-5.74-.64-41.97.94-45.35.53-1.14,1.13-2.17,2.41-2.59ZM233.75,47.5h-85v38.75h85v-38.75Z"/>
  <path class="st0" d="M108.45,169.05c1.41,1.94,1.41,4.24,1.6,6.53.57,6.95,1.02,38.23-.61,43.24-.38,1.17-.96,2.27-1.92,3.08l-94.45.67c-1.95,0-4.05-.71-4.95-2.55-1.08-2.21-1.27-42.12-.69-46.95.31-2.56.35-3.45,2.87-4.63l98.16.63ZM101.25,176.25H16.25v38.75h85v-38.75Z"/>
  <path class="st0" d="M187.37,101.39c5.01,25.11-5.04,52.14-22.32,70.49l14.57,14.24c4.58,1.2,8.23-11.6,19.02-5.38l33.76,33.81c.3,1.7-4.14,6.52-6.15,4.9l-33.14-32-18.17,18.17,28.77,30-5.6,5.6c-7.63-8.81-18.36-16.72-25.65-25.57-7.78-9.45-6.66-14.61,2.51-22.53l-14.96-15.05c-12.23,6.94-24.32,15.62-38.77,16.94l-1.26-7.5c40.19-7.43,65.77-46.23,60.01-86.27l7.37.14Z"/>
  <path class="st0" d="M68.75,129.38c1.1-7.83,8.25-17.05,14.85-21.22-12.56-17.3-1-42.84,20.78-43.25,22.78-.43,35.69,26.05,21.87,43.82,6.19,1.24,15,15.11,15,20.65v25.62h-7.5v-23.12c0-1.61-3.25-8.75-4.46-10.54-8.71-12.92-12.15-2.72-23.65-2.5-6.05.12-15.77-4.8-17-4.53-2.8.61-11.14,10.2-11.14,12.57v28.12h-8.75c.8-8.01-1.09-17.88,0-25.62ZM103.49,72.77c-28.87,2.85-17.87,48.58,9.87,36.21,18.68-8.33,10.95-38.27-9.87-36.21Z"/>
  <path class="st0" d="M98.49,31.62c5.27-.48,33.9.44,35.13,5.36-1.15,10.46-6.31,4.48-13.32,3.34C52.53,29.31,5.87,102.36,46.12,158.13l-6.62,4.27C1.56,111.23,35.23,37.4,98.49,31.62Z"/>
  <rect class="st0" x="156.25" y="55" width="70" height="7.5"/>
  <rect class="st0" x="156.25" y="70" width="38.75" height="8.75"/>
  <path class="st0" d="M226.25,70v8.75h-21.88c-2.56,0-2.56-8.75,0-8.75h21.88Z"/>
  <rect class="st0" x="23.75" y="183.75" width="70" height="7.5"/>
  <rect class="st0" x="23.75" y="198.75" width="38.75" height="8.75"/>
  <path class="st0" d="M93.75,198.75v8.75h-21.88c-2.56,0-2.56-8.75,0-8.75h21.88Z"/>
</svg>