<?xml version="1.0" encoding="UTF-8"?>
<svg id="Layer_2" xmlns="http://www.w3.org/2000/svg" version="1.1" viewBox="0 0 250 250">
  <!-- Generator: Adobe Illustrator 29.0.1, SVG Export Plug-In . SVG Version: 2.1.0 Build 192)  -->
  <defs>
    <style>
      .st0 {
        fill: #fff;
      }
    </style>
  </defs>
  <path class="st0" d="M118.25.21c100.83-5.75,166.21,105.92,112.47,191.6-47.54,75.8-158.5,77.98-208.83,3.96C-32.96,115.1,21.24,5.74,118.25.21ZM93.5,156.73c-20.87-13.78-22.61-40.33-21.22-63.35,2.19-36.35,34.16-61.27,69.94-49.47,34.28,11.31,37.22,45.43,34.78,76.58-1.09,13.89-9.35,28.4-20.51,36.59,16.03,6.63,30.67,15.72,42.09,28.92,1.5,1.73,7.11,10.31,7.66,10.66,1.21.77,1.5-.07,2.24-.73,9.87-8.74,20.33-33.54,23.17-46.4C254.78,44.62,129.95-27.34,51.03,44.3,10.43,81.15,2.09,153.52,40.42,194.81c.55.6,2.4,2.83,3.29,2.19,7.61-12.92,20.32-24.7,33.47-32.07,4.89-2.74,10.48-4.38,15.06-6.9.4-.22,1.59-.82,1.26-1.29ZM118.22,57.31c-11.11,1.5-22.28,10.72-26.81,20.79-4.46,9.92-4.55,40.88-.66,50.99,12.44,32.35,60.7,29.95,69.6-4,2.16-8.24,2.16-33.2,0-41.45-4.89-18.68-23.49-28.85-42.13-26.32ZM195.18,209.36c.93-1.6-6.77-11.31-8.31-13.1-28.92-33.52-78.95-38.35-113.47-10.22-3.67,2.99-19.42,18.85-18.75,22.95,39.83,34.04,100.42,33.85,140.53.37Z"/>
</svg>