<?xml version="1.0" encoding="UTF-8"?>
<svg id="Layer_1" xmlns="http://www.w3.org/2000/svg" version="1.1" viewBox="0 0 250 250">
  <!-- Generator: Adobe Illustrator 29.0.1, SVG Export Plug-In . SVG Version: 2.1.0 Build 192)  -->
  <defs>
    <style>
      .st0 {
        fill: #fff;
      }
    </style>
  </defs>
  <path class="st0" d="M13.65,250c-7.35-1.84-12.57-7.11-13.18-14.85l.03-220.28C1.19,8.54,5.34,2.9,11.59,1.11,15.29.05,34.59-.11,38.71.52c5.44.83,5.49,8.58.41,9.6-6.65,1.34-16.7-.84-23.72.16-1.9.27-5.16,2.69-5.16,4.59v36.79h230.02V14.86c0-1.86-3.92-5.16-6.07-4.65l-152.56.03c-6.01-.72-6.19-8.55-.44-9.73l154.44-.02c6.63.39,13.49,6.55,14.38,13.15v223.2c-1.69,6.9-6.26,11.46-13.16,13.16H13.65ZM240.25,61.4H10.23v174.22c0,1.86,3.92,5.16,6.07,4.65h217.39c2.3.69,6.56-2.59,6.56-4.65V61.4Z"/>
  <path class="st0" d="M111.43,27.46c3.18,3.25.61,8.7-3.97,8.6H35.33c-7.28-.81-6.88-9.13-1.47-9.76l75.92.14c.56.27,1.23.58,1.65,1.01Z"/>
  <path class="st0" d="M58.84.59c6.94-1.33,8.09,8.88,1.78,9.63s-7.78-8.48-1.78-9.63Z"/>
  <path class="st0" d="M161.65,26.42c7.6-1.74,8.49,8.55,2.12,9.43-5.83.8-7.5-8.19-2.12-9.43Z"/>
  <path class="st0" d="M212.14,34.45c-4.44-4.74,3.17-11.34,7.17-6.93,4.6,5.08-3.09,11.29-7.17,6.93Z"/>
  <path class="st0" d="M187.97,26.42c7.54-1.73,8.45,8.56,2.12,9.43-5.83.8-7.5-8.2-2.12-9.43Z"/>
  <path class="st0" d="M25.21,72.24l201.19.34c1.6.79,3.05,2.3,3.14,4.17l-.23,75.82c-1.01,2.29-3.47,3.3-5.85,3.41H27.03c-2.78-.12-5.84-1.54-6.08-4.64l.23-75.82c.81-1.61,2.2-2.96,4.04-3.27ZM196.88,81.87H53.61l9.14,3.78,62.7,23,58.4-21.54,13.03-5.24ZM30.7,84.31v59.45l79.93-29.49-79.93-29.97ZM219.79,84.31l-79.93,29.49,79.93,29.97v-59.45ZM53.61,146.2h143.27c-.12-.75-1.65-1.07-2.31-1.34-22.67-9.26-46.26-16.54-69.07-25.48-23.15,8.55-46.61,16.46-69.58,25.48-.65.26-2.2.6-2.31,1.34Z"/>
  <path class="st0" d="M24.71,170.18l54.25.13c2.84.94,3.66,3.04,3.9,5.84,1.33,15.06-1.05,32.04,0,47.31-.35,3.89-1.65,5.72-5.61,6.09-16.22,1.52-34.75-1.19-51.21,0-3.37-.32-4.79-1.75-5.12-5.12-1.51-15.69,1.19-33.79.01-49.74,0-1.77,2.13-4.15,3.77-4.52ZM65.3,179.82H30.7v33.14l34.6-33.14ZM73.1,219.79v-33.14l-35.09,33.14h35.09Z"/>
  <path class="st0" d="M171.9,170.19l54.5.34c2.07,1.05,2.94,2.36,3.15,4.64,1.46,15.76-1.15,33.74-.01,49.74-.35,2.93-2.22,4.56-5.1,4.64-16.49-1.02-34.42,1.27-50.73,0-4.26-.33-5.65-1.75-6.09-6.09,1.28-15.15-1.65-32.95.02-47.78.29-2.58,1.47-5.03,4.26-5.49ZM212.48,179.82h-34.36l-.73.73v32.41l35.09-33.14ZM219.79,219.79v-33.14l-34.6,33.14h34.6Z"/>
  <path class="st0" d="M98.31,170.19l54.24.12c1.57.53,2.63,1.54,3.28,3.06l-.1,53.27c-.51,1.64-2.75,2.72-4.4,2.91-16.57-1.23-35.4,1.59-51.69.01-3.1-.3-4.83-1.45-5.12-4.63-1.46-16.09,1.15-34.39.01-50.72.06-2.27,1.84-3.37,3.78-4.02ZM138.89,179.82h-34.6v33.14l34.6-33.14ZM146.2,219.79v-33.14l-34.6,33.14h34.6Z"/>
</svg>